<?xml version="1.0" encoding="UTF-8" standalone="no" ?>
<!DOCTYPE svg PUBLIC "-//W3C//DTD SVG 1.1//EN" "http://www.w3.org/Graphics/SVG/1.1/DTD/svg11.dtd">
<svg xmlns="http://www.w3.org/2000/svg" xmlns:xlink="http://www.w3.org/1999/xlink" version="1.1" width="1080" height="1080" viewBox="0 0 1080 1080" xml:space="preserve">
<desc>Created with Fabric.js 5.2.4</desc>
<defs>
</defs>
<g transform="matrix(1 0 0 1 540 540)" id="bf5aaf6b-7239-4d9f-bc67-11fe6dc91678"  >
<rect style="stroke: none; stroke-width: 1; stroke-dasharray: none; stroke-linecap: butt; stroke-dashoffset: 0; stroke-linejoin: miter; stroke-miterlimit: 4; fill: rgb(255,255,255); fill-rule: nonzero; opacity: 1; visibility: hidden;" vector-effect="non-scaling-stroke"  x="-540" y="-540" rx="0" ry="0" width="1080" height="1080" />
</g>
<g transform="matrix(1 0 0 1 540 540)" id="2337ceb6-cd5b-4f81-90f6-73ce28f16ac6"  >
</g>
<g transform="matrix(1 0 0 1 540 540)"  >
<g style="" vector-effect="non-scaling-stroke"   >
		<g transform="matrix(1 0 0 1 0 -0.46)"  >
<path style="stroke: none; stroke-width: 1; stroke-dasharray: none; stroke-linecap: butt; stroke-dashoffset: 0; stroke-linejoin: miter; stroke-miterlimit: 4; fill: rgb(0,0,0); fill-rule: nonzero; opacity: 1;" vector-effect="non-scaling-stroke"  transform=" translate(-152.97, -295.94)" d="M 0 0 C 14.28130022 11.73788446 25.07678247 25.33798176 35.68066406 40.38134766 C 36.32664551 41.29352051 36.97262695 42.20569336 37.63818359 43.14550781 C 46.17622652 55.21710473 54.43563939 67.4067775 62.20214844 79.98925781 C 63.74375801 82.48342732 65.29719326 84.96994239 66.85253906 87.45556641 C 72.42314314 96.37973938 77.8689077 105.36320519 83.18066406 114.44384766 C 88.84129452 124.10446443 94.86696451 133.4825397 101.01708984 142.83642578 C 109.55880007 155.90346239 117.80875795 169.16206634 126.06811523 182.40844727 C 131.44362866 191.0222386 136.88872015 199.59042761 142.34863281 208.15087891 C 145.47385898 213.0519042 148.58033568 217.96454548 151.68066406 222.88134766 C 158.31629368 233.40111352 164.99821323 243.89128443 171.68066406 254.38134766 C 179.88737061 267.26417652 188.07775991 280.15681045 196.22607422 293.07666016 C 197.67148195 295.3667993 199.1190709 297.65554423 200.56738281 299.94384766 C 206.09237196 308.67599852 211.586495 317.42661667 217.05566406 326.19384766 C 223.10155013 335.88302514 229.21231896 345.52909894 235.35253906 355.15869141 C 243.67783925 368.21558521 251.90674051 381.33209936 260.10742188 394.4675293 C 265.93196996 403.79322488 271.79987151 413.09105284 277.68066406 422.38134766 C 284.21015036 432.69642885 290.71506602 443.02607073 297.18066406 453.38134766 C 299.0881105 456.43359887 300.99585354 459.48566435 302.90380859 462.53759766 C 304.02292215 464.3286714 305.14120456 466.120265 306.25830078 467.91259766 C 329.18266894 510.65315209 329.18266894 510.65315209 365.68066406 538.38134766 C 378.3820446 539.5786972 392.42105076 539.72587315 402.93066406 531.75634766 C 411.26328519 524.42685106 420.17258646 516.00448571 421.14762115 504.33826065 C 421.39379421 499.29690927 421.35392826 494.25575514 421.32421875 489.20996094 C 421.33104546 487.26597743 421.34007365 485.32200061 421.35112 483.3780365 C 421.3750131 478.09409875 421.36838274 472.81058343 421.35663128 467.52662134 C 421.3497101 461.9031033 421.37200942 456.2796983 421.39117432 450.65621948 C 421.42354217 439.91576477 421.43129089 429.17544379 421.4296 418.43494594 C 421.42838698 405.38318525 421.45362167 392.33151142 421.48144531 379.27978516 C 421.48630279 376.94556556 421.49115255 374.61134594 421.49599457 372.27712631 C 421.50326625 368.78779252 421.51060498 365.29845892 421.51813269 361.80912566 C 421.53059483 356.0215378 421.54232011 350.23395029 421.55238342 344.44635773 C 421.60580175 313.79818449 421.72060477 283.15189067 422.044034 252.50525427 C 422.07083133 249.85628331 422.09431476 247.20730355 422.11675262 244.55829239 C 422.38184849 214.05271138 422.38184849 214.05271138 423.53125 200.97949219 C 423.59901768 200.16690382 423.66678535 199.35431545 423.7366066 198.5171032 C 424.74355634 188.93315044 429.88174534 182.81473311 436.68066406 176.38134766 C 445.95073843 169.67942722 455.28010549 166.31294744 466.81347656 167.77978516 C 478.05140874 170.22281389 486.38906011 176.59628265 493.68066406 185.38134766 C 499.47379952 195.62993026 499.01299933 208.23129345 499.28369141 219.72924805 C 499.321112 221.11354369 499.35873337 222.49783391 499.39653587 223.88211918 C 499.8379036 240.92924082 499.92491221 257.98272856 500.01691866 275.03456759 C 500.0378569 278.8375791 500.06121903 282.64057453 500.08445585 286.44357258 C 500.13955213 295.4811614 500.19028343 304.51876739 500.23828125 313.55639648 C 500.28146171 321.67232115 500.33002073 329.78819139 500.38378906 337.90405273 C 500.89439471 415.31190009 500.89439471 415.31190009 500.35736418 452.95388913 C 500.32985237 454.92520593 500.30521521 456.89656219 500.28065872 458.86791801 C 500.1084875 471.93162424 499.69102093 484.94376861 498.75341797 497.97680664 C 498.67585455 499.06439553 498.59829113 500.15198442 498.5183773 501.27253056 C 495.70529524 537.16762039 478.96042781 566.99019338 452.02050781 590.63134766 C 429.14195821 609.90597202 397.01650304 618.68095447 367.41699219 616.19091797 C 343.65648256 613.88999905 320.76682493 606.36659085 302.68066406 590.38134766 C 301.87371094 589.69427734 301.06675781 589.00720703 300.23535156 588.29931641 C 275.8980736 567.12817335 259.39072274 538.57674939 242.58496094 511.45166016 C 239.39993212 506.3164137 236.19637936 501.1927625 232.99316406 496.06884766 C 232.05355835 494.56487427 232.05355835 494.56487427 231.0949707 493.03051758 C 226.83028306 486.20802303 222.54138069 479.40125087 218.23852539 472.6027832 C 214.19587592 466.21017941 210.18577712 459.79752158 206.18066406 453.38134766 C 200.19494713 443.79343189 194.177018 434.22660198 188.13232422 424.67578125 C 185.64592873 420.74588807 183.16353632 416.81346733 180.68066406 412.88134766 C 179.68068242 411.29800273 178.68068244 409.71466938 177.68066406 408.13134766 C 39.68066407 189.63134766 39.68066407 189.63134766 38.18115234 187.25708008 C 37.17957371 185.67127441 36.17794599 184.08549974 35.17626953 182.49975586 C 32.70002222 178.57950008 30.22458705 174.65873658 27.75097656 170.73681641 C 23.05523243 163.2937535 18.34979649 155.85725868 13.61767578 148.43725586 C 8.09573958 139.77831125 2.61475091 131.09571597 -2.81933594 122.38134766 C -17.87103787 97.91273203 -17.87103787 97.91273203 -34.31933594 74.38134766 C -34.84527344 73.68138672 -35.37121094 72.98142578 -35.91308594 72.26025391 C -43.67245203 62.58260009 -54.44836993 55.78375837 -66.31933594 52.38134766 C -81.21078319 50.92621893 -93.73782633 55.78395461 -105.25683594 65.13134766 C -118.1942438 77.35257758 -116.12373059 100.28397353 -116.62585449 116.83460999 C -116.71563837 120.10006592 -116.79215768 123.36570082 -116.86425781 126.6315918 C -116.88505622 127.55543863 -116.90585463 128.47928547 -116.92728329 129.43112767 C -117.64142717 162.42806847 -117.52906553 195.44166815 -117.58465633 228.44465637 C -117.60192292 238.52928681 -117.62527267 248.61390087 -117.64907056 258.69851769 C -117.69153127 276.72226406 -117.73071638 294.74601574 -117.76708984 312.76977539 C -117.76925265 313.84088749 -117.77141545 314.91199959 -117.77364379 316.01556963 C -117.79116355 324.70497072 -117.80851875 333.39437214 -117.82584667 342.08377361 C -117.84101964 349.69102175 -117.85625176 357.29826976 -117.87158203 364.90551758 C -117.8737409 365.97739806 -117.87589977 367.04927855 -117.87812406 368.15364026 C -117.91444974 386.13375345 -117.95440743 404.11385686 -117.99688482 422.09395653 C -118.02274329 433.11154761 -118.04546989 444.12913606 -118.0638684 455.14674217 C -118.07670515 462.70757332 -118.09288927 470.26839287 -118.11151755 477.82921194 C -118.12207953 482.16222758 -118.13127144 486.49523252 -118.1362133 490.82825851 C -118.15741194 508.50697438 -118.31866985 526.17299235 -118.77648926 543.84632874 C -118.79634366 544.63244667 -118.81619807 545.4185646 -118.83665413 546.22850429 C -120.12410533 596.10249225 -120.12410533 596.10249225 -129.85058594 605.92822266 C -137.6971783 613.13282109 -146.41746717 616.17757454 -157.04589844 616.45166016 C -168.71643969 615.87990453 -178.50294217 610.98258424 -186.31933594 602.38134766 C -197.42123607 588.85770951 -194.46969653 566.53892227 -194.44631958 549.98005676 C -194.44747453 548.17515697 -194.44906456 546.37025741 -194.45104682 544.56535834 C -194.45518991 539.64888349 -194.45317221 534.73242826 -194.45006061 529.81595337 C -194.44778564 524.49494113 -194.45129683 519.17393212 -194.45404053 513.85292053 C -194.4584775 503.43790817 -194.4575302 493.02290304 -194.45462789 482.6078904 C -194.4523622 474.12229242 -194.45206639 465.63669645 -194.4531517 457.15109825 C -194.45330494 455.93954895 -194.45345817 454.72799965 -194.45361605 453.47973674 C -194.45393581 451.01750519 -194.45426003 448.55527365 -194.45458864 446.0930421 C -194.45743828 423.01570764 -194.45416632 399.93837716 -194.44878827 376.86104336 C -194.44433712 357.15402364 -194.44508317 337.44700984 -194.44970703 317.73999023 C -194.45509039 294.78571608 -194.45714645 271.83144544 -194.45409477 248.87717074 C -194.45377628 246.41553191 -194.45346191 243.95389309 -194.4531517 241.49225426 C -194.45299743 240.28156937 -194.45284315 239.07088448 -194.4526842 237.82351217 C -194.45182903 229.38459188 -194.45326046 220.94567386 -194.45563126 212.50675392 C -194.4584722 202.16771674 -194.45760313 191.82868711 -194.45235051 181.48965076 C -194.4497677 176.23649433 -194.44861281 170.98335037 -194.45199966 165.73019409 C -194.46452238 144.43302644 -194.33029904 123.14733363 -193.87374878 101.85453796 C -193.85432968 100.90925918 -193.83491059 99.96398039 -193.81490304 98.99005679 C -193.06253928 63.26542152 -184.05854665 34.51790723 -157.73583984 8.83642578 C -114.81152123 -31.00580771 -46.8028976 -37.13321653 0 0 Z" stroke-linecap="round" />
</g>
		<g transform="matrix(1 0 0 1 -70.91 283.18)"  >
<path style="stroke: none; stroke-width: 1; stroke-dasharray: none; stroke-linecap: butt; stroke-dashoffset: 0; stroke-linejoin: miter; stroke-miterlimit: 4; fill: rgb(0,0,0); fill-rule: nonzero; opacity: 1;" vector-effect="non-scaling-stroke"  transform=" translate(20.98, -31.88)" d="M 0 0 C 8.80054986 5.98642054 13.44428651 15.09624261 16.328125 25.05859375 C 17.65053219 36.16681418 15.89566482 45.41556047 9.296875 54.5859375 C 3.08546171 62.45275103 -4.17729427 68.15470547 -14.359375 69.68359375 C -27.11630798 70.51472726 -36.00558305 67.68417227 -46.484375 60.55859375 C -53.14972846 54.69382744 -57.89776195 45.76670485 -58.6953125 36.984375 C -58.81386883 24.87977357 -57.02346585 14.79150217 -48.359375 5.68359375 C -33.88163857 -7.87712675 -17.17915286 -9.58505714 0 0 Z" stroke-linecap="round" />
</g>
		<g transform="matrix(1 0 0 1 308.08 -284.19)"  >
<path style="stroke: none; stroke-width: 1; stroke-dasharray: none; stroke-linecap: butt; stroke-dashoffset: 0; stroke-linejoin: miter; stroke-miterlimit: 4; fill: rgb(0,0,0); fill-rule: nonzero; opacity: 1;" vector-effect="non-scaling-stroke"  transform=" translate(28.62, -23.83)" d="M 0 0 C 6.36103681 7.36541105 9.76443267 16.77381548 9.34375 26.5546875 C 8.02196804 35.95736375 4.99894232 44.40099724 -2 51 C -10.44069288 57.26511462 -18.88229229 60.57175084 -29.375 60.4375 C -30.21208496 60.42920166 -31.04916992 60.42090332 -31.91162109 60.41235352 C -42.6430474 60.119071 -50.17322781 56.31531975 -58 49 C -65.81134068 40.74062731 -66.62197731 30.28950782 -66.62597656 19.40454102 C -66.27230896 9.26511903 -61.82360553 3.5071516 -54.6875 -3.375 C -37.82957726 -17.33725914 -15.64162732 -15.39334752 0 0 Z" stroke-linecap="round" />
</g>
</g>
</g>
</svg>